<?xml version="1.0" standalone="no"?>
<!DOCTYPE svg PUBLIC "-//W3C//DTD SVG 20010904//EN"
 "http://www.w3.org/TR/2001/REC-SVG-20010904/DTD/svg10.dtd">
<svg version="1.0" xmlns="http://www.w3.org/2000/svg"
 width="3000.000000pt" height="3000.000000pt" viewBox="0 0 3000.000000 3000.000000"
 preserveAspectRatio="xMidYMid meet">

<g transform="translate(0.000000,3000.000000) scale(0.100000,-0.100000)"
fill="#000000" stroke="none">
<path d="M3190 25960 c0 -6 -42 -10 -105 -10 -63 0 -105 -4 -105 -10 0 -6 -30
-10 -70 -10 -40 0 -70 -4 -70 -10 0 -5 -25 -10 -55 -10 -30 0 -55 -4 -55 -10
0 -5 -18 -10 -40 -10 -22 0 -40 -4 -40 -10 0 -5 -13 -10 -30 -10 -16 0 -30 -4
-30 -10 0 -5 -13 -10 -30 -10 -16 0 -30 -4 -30 -10 0 -5 -9 -10 -20 -10 -11 0
-20 -4 -20 -9 0 -5 -18 -12 -40 -16 -22 -4 -40 -11 -40 -16 0 -5 -8 -9 -18 -9
-10 0 -24 -9 -32 -20 -8 -11 -21 -20 -28 -20 -14 0 -53 -38 -82 -79 -8 -12
-20 -21 -27 -21 -7 0 -47 -33 -88 -72 -41 -40 -97 -93 -124 -118 -27 -25 -50
-51 -50 -58 -1 -8 -18 -30 -39 -50 -21 -21 -42 -50 -46 -65 -3 -15 -11 -27
-16 -27 -6 0 -10 -8 -10 -18 0 -10 -9 -24 -20 -32 -11 -8 -20 -19 -20 -25 0
-6 -9 -17 -20 -25 -11 -8 -20 -22 -20 -32 0 -10 -4 -18 -10 -18 -5 0 -10 -9
-10 -20 0 -11 -4 -20 -10 -20 -5 0 -10 -9 -10 -20 0 -11 -4 -20 -10 -20 -5 0
-10 -9 -10 -20 0 -11 -4 -20 -10 -20 -5 0 -10 -9 -10 -20 0 -11 -4 -20 -10
-20 -5 0 -10 -9 -10 -20 0 -11 -4 -20 -10 -20 -5 0 -10 -9 -10 -20 0 -11 -4
-20 -10 -20 -5 0 -10 -7 -10 -15 0 -8 -4 -15 -10 -15 -5 0 -10 -13 -10 -30 0
-16 -4 -30 -10 -30 -5 0 -10 -9 -10 -20 0 -11 -4 -20 -10 -20 -5 0 -10 -13
-10 -30 0 -16 -4 -30 -10 -30 -5 0 -10 -9 -10 -20 0 -11 -4 -20 -10 -20 -5 0
-10 -13 -10 -30 0 -16 -4 -30 -10 -30 -5 0 -10 -9 -10 -20 0 -11 -4 -20 -9
-20 -5 0 -13 -25 -16 -55 -4 -30 -11 -55 -16 -55 -5 0 -9 -13 -9 -30 0 -16 -4
-30 -10 -30 -5 0 -10 -13 -10 -30 0 -16 -4 -30 -10 -30 -5 0 -10 -18 -10 -40
0 -22 -4 -40 -10 -40 -5 0 -10 -11 -10 -25 0 -14 -4 -25 -10 -25 -5 0 -10 -18
-10 -40 0 -22 -4 -40 -10 -40 -5 0 -10 -22 -10 -50 0 -27 -4 -50 -10 -50 -5 0
-10 -22 -10 -50 0 -27 -4 -50 -10 -50 -5 0 -10 -25 -10 -55 0 -30 -4 -55 -10
-55 -6 0 -10 -37 -10 -90 0 -53 -4 -90 -10 -90 -7 0 -10 -1668 -10 -4985 0
-3317 3 -4985 10 -4985 6 0 10 -28 10 -65 0 -37 4 -65 10 -65 6 0 10 -27 10
-60 0 -33 4 -60 10 -60 6 0 10 -20 10 -45 0 -25 5 -45 10 -45 6 0 10 -18 10
-40 0 -22 5 -40 10 -40 6 0 10 -18 10 -40 0 -22 5 -40 10 -40 6 0 10 -13 10
-30 0 -16 5 -30 10 -30 6 0 10 -13 10 -30 0 -16 5 -30 10 -30 6 0 10 -11 10
-25 0 -14 5 -25 10 -25 6 0 10 -9 10 -20 0 -11 4 -20 9 -20 5 0 11 -22 15 -50
4 -27 11 -50 16 -50 6 0 10 -9 10 -20 0 -11 5 -20 10 -20 6 0 10 -9 10 -20 0
-11 5 -20 10 -20 6 0 10 -9 10 -20 0 -11 5 -20 10 -20 6 0 10 -9 10 -20 0 -11
5 -20 10 -20 6 0 10 -7 10 -15 0 -8 5 -15 10 -15 6 0 10 -8 10 -18 0 -10 9
-24 20 -32 11 -8 20 -21 20 -28 0 -8 13 -27 30 -42 16 -15 30 -33 30 -40 0 -6
18 -29 40 -50 22 -21 40 -45 40 -52 0 -7 10 -20 21 -28 12 -8 30 -24 40 -35
89 -96 160 -165 170 -165 6 0 24 -13 39 -30 15 -16 34 -30 42 -30 7 0 20 -9
28 -20 8 -11 22 -20 32 -20 10 0 18 -4 18 -9 0 -5 18 -12 40 -16 22 -4 40 -11
40 -16 0 -5 11 -9 25 -9 14 0 25 -4 25 -10 0 -5 14 -10 30 -10 17 0 30 -4 30
-10 0 -5 14 -10 30 -10 17 0 30 -4 30 -10 0 -5 23 -10 50 -10 28 0 50 -4 50
-10 0 -6 30 -10 70 -10 40 0 70 -4 70 -10 0 -6 38 -10 95 -10 57 0 95 -4 95
-10 0 -6 92 -10 255 -10 163 0 255 -4 255 -10 0 -7 3867 -10 11580 -10 7713 0
11580 3 11580 10 0 6 65 10 175 10 110 0 175 4 175 10 0 6 35 10 85 10 50 0
85 4 85 10 0 6 30 10 70 10 40 0 70 4 70 10 0 6 23 10 50 10 28 0 50 5 50 10
0 6 20 10 45 10 25 0 45 5 45 10 0 6 18 10 40 10 22 0 40 5 40 10 0 6 14 10
30 10 17 0 30 4 30 9 0 4 31 12 70 15 38 4 70 11 70 17 0 5 9 9 20 9 11 0 20
5 20 10 0 6 11 10 25 10 14 0 25 5 25 10 0 6 9 10 20 10 11 0 20 5 20 10 0 6
9 10 20 10 11 0 20 5 20 10 0 6 9 10 20 10 11 0 20 5 20 10 0 6 9 10 20 10 11
0 20 5 20 10 0 6 9 10 20 10 11 0 20 5 20 10 0 6 7 10 16 10 9 0 29 14 44 30
15 17 33 30 39 30 14 0 311 297 311 311 0 6 13 24 30 39 16 15 30 35 30 43 0
9 9 19 20 22 11 3 20 14 20 23 0 10 9 24 20 32 11 8 20 22 20 32 0 10 4 18 9
18 5 0 11 23 15 50 4 28 11 50 16 50 6 0 10 18 10 40 0 22 5 40 10 40 6 0 10
16 10 35 0 19 5 35 10 35 6 0 10 14 10 30 0 17 5 30 10 30 6 0 10 18 10 40 0
22 5 40 10 40 6 0 10 14 10 30 0 17 5 30 10 30 6 0 10 18 10 40 0 22 5 40 10
40 6 0 10 25 10 55 0 30 5 55 10 55 6 0 10 37 10 90 0 53 4 90 10 90 6 0 10
52 10 135 0 83 4 135 10 135 7 0 10 873 10 2600 0 1727 -3 2600 -10 2600 -5 0
-10 20 -10 45 0 25 -4 45 -10 45 -5 0 -10 23 -10 50 0 28 -4 50 -10 50 -5 0
-10 18 -10 40 0 22 -4 40 -10 40 -5 0 -10 14 -10 30 0 17 -4 30 -10 30 -5 0
-10 11 -10 25 0 14 -4 25 -10 25 -5 0 -10 14 -10 30 0 17 -4 30 -10 30 -5 0
-10 14 -10 30 0 17 -4 30 -10 30 -5 0 -10 9 -10 20 0 11 -4 20 -10 20 -5 0
-10 14 -10 30 0 17 -4 30 -9 30 -5 0 -12 16 -15 35 -4 19 -11 35 -16 35 -6 0
-10 9 -10 20 0 11 -4 20 -10 20 -5 0 -10 9 -10 20 0 11 -4 20 -10 20 -5 0 -10
9 -10 20 0 11 -4 20 -10 20 -5 0 -10 9 -10 20 0 11 -4 20 -10 20 -5 0 -10 9
-10 20 0 11 -4 20 -10 20 -5 0 -10 8 -10 18 0 10 -9 24 -20 32 -11 8 -20 22
-20 32 0 10 -4 18 -10 18 -5 0 -10 5 -10 11 0 6 -14 24 -30 39 -16 15 -30 33
-30 39 0 11 -145 161 -156 161 -3 0 -22 17 -42 38 -21 21 -50 42 -65 46 -15 3
-27 11 -27 16 0 6 -9 10 -20 10 -11 0 -20 5 -20 10 0 6 -9 10 -20 10 -11 0
-20 5 -20 10 0 6 -8 10 -18 10 -10 0 -24 9 -32 20 -8 12 -26 20 -42 20 -15 0
-28 5 -28 10 0 6 -9 10 -20 10 -11 0 -20 5 -20 10 0 6 -7 10 -15 10 -8 0 -15
5 -15 10 0 6 -9 10 -20 10 -11 0 -20 5 -20 10 0 6 -13 10 -30 10 -16 0 -30 5
-30 10 0 6 -13 10 -30 10 -16 0 -30 5 -30 10 0 6 -13 10 -30 10 -16 0 -30 5
-30 10 0 6 -13 10 -30 10 -16 0 -30 5 -30 10 0 6 -18 10 -40 10 -22 0 -40 5
-40 10 0 6 -16 10 -35 10 -19 0 -35 5 -35 10 0 6 -22 10 -50 10 -27 0 -50 4
-50 9 0 5 -41 12 -90 15 -50 4 -90 12 -90 17 0 5 -16 9 -35 9 -19 0 -35 5 -35
10 0 6 -22 10 -50 10 -27 0 -50 5 -50 10 0 6 -18 10 -40 10 -22 0 -40 5 -40
10 0 6 -18 10 -40 10 -22 0 -40 5 -40 10 0 6 -18 10 -40 10 -22 0 -40 5 -40
10 0 6 -20 10 -45 10 -25 0 -45 5 -45 10 0 6 -18 10 -40 10 -22 0 -40 5 -40
10 0 6 -18 10 -40 10 -22 0 -40 5 -40 10 0 6 -22 10 -50 10 -27 0 -50 5 -50
10 0 6 -18 10 -40 10 -22 0 -40 5 -40 10 0 6 -16 10 -35 10 -19 0 -35 5 -35
10 0 6 -22 10 -50 10 -27 0 -50 5 -50 10 0 6 -18 10 -40 10 -22 0 -40 5 -40
10 0 6 -18 10 -40 10 -22 0 -40 4 -40 9 0 5 -38 12 -85 16 -47 4 -85 11 -85
16 0 5 -18 9 -40 9 -22 0 -40 5 -40 10 0 6 -18 10 -40 10 -22 0 -40 5 -40 10
0 6 -22 10 -50 10 -27 0 -50 5 -50 10 0 6 -16 10 -35 10 -19 0 -35 5 -35 10 0
6 -18 10 -40 10 -22 0 -40 5 -40 10 0 6 -22 10 -50 10 -27 0 -50 5 -50 10 0 6
-18 10 -40 10 -22 0 -40 5 -40 10 0 6 -18 10 -40 10 -22 0 -40 5 -40 10 0 6
-20 10 -45 10 -25 0 -45 5 -45 10 0 6 -18 10 -40 10 -22 0 -40 5 -40 10 0 6
-18 10 -40 10 -22 0 -40 5 -40 10 0 6 -18 10 -40 10 -22 0 -40 5 -40 10 0 6
-22 10 -50 10 -27 0 -50 5 -50 10 0 6 -16 10 -35 10 -19 0 -35 5 -35 10 0 6
-18 10 -40 10 -22 0 -40 4 -40 9 0 5 -41 12 -90 15 -50 4 -90 12 -90 17 0 5
-18 9 -40 9 -22 0 -40 5 -40 10 0 6 -20 10 -45 10 -25 0 -45 5 -45 10 0 6 -18
10 -40 10 -22 0 -40 5 -40 10 0 6 -18 10 -40 10 -22 0 -40 5 -40 10 0 6 -22
10 -50 10 -27 0 -50 5 -50 10 0 6 -16 10 -35 10 -19 0 -35 5 -35 10 0 6 -18
10 -40 10 -22 0 -40 5 -40 10 0 6 -18 10 -40 10 -22 0 -40 5 -40 10 0 6 -22
10 -50 10 -27 0 -50 5 -50 10 0 6 -18 10 -40 10 -22 0 -40 5 -40 10 0 6 -16
10 -35 10 -19 0 -35 5 -35 10 0 6 -22 10 -50 10 -27 0 -50 5 -50 10 0 6 -18
10 -40 10 -22 0 -40 5 -40 10 0 6 -18 10 -40 10 -22 0 -40 4 -40 9 0 4 -37 11
-82 15 -46 4 -84 11 -86 16 -2 6 -21 10 -43 10 -21 0 -39 5 -39 10 0 6 -18 10
-40 10 -22 0 -40 5 -40 10 0 6 -22 10 -50 10 -27 0 -50 5 -50 10 0 6 -18 10
-40 10 -22 0 -40 5 -40 10 0 6 -16 10 -35 10 -19 0 -35 5 -35 10 0 6 -22 10
-50 10 -27 0 -50 5 -50 10 0 6 -18 10 -40 10 -22 0 -40 5 -40 10 0 6 -18 10
-40 10 -22 0 -40 5 -40 10 0 6 -20 10 -45 10 -25 0 -45 5 -45 10 0 6 -18 10
-40 10 -22 0 -40 5 -40 10 0 6 -18 10 -40 10 -22 0 -40 5 -40 10 0 6 -18 10
-40 10 -22 0 -40 5 -40 10 0 6 -22 10 -50 10 -27 0 -50 5 -50 10 0 6 -16 10
-35 10 -19 0 -35 5 -35 10 0 6 -18 10 -40 10 -22 0 -40 4 -40 9 0 5 -40 12
-90 15 -49 4 -90 12 -90 17 0 5 -18 9 -40 9 -22 0 -40 5 -40 10 0 6 -20 10
-45 10 -25 0 -45 5 -45 10 0 6 -18 10 -40 10 -22 0 -40 5 -40 10 0 6 -18 10
-40 10 -22 0 -40 5 -40 10 0 6 -18 10 -40 10 -22 0 -40 5 -40 10 0 6 -20 10
-45 10 -25 0 -45 5 -45 10 0 6 -18 10 -40 10 -22 0 -40 5 -40 10 0 6 -18 10
-40 10 -22 0 -40 5 -40 10 0 6 -22 10 -50 10 -27 0 -50 5 -50 10 0 6 -18 10
-40 10 -22 0 -40 5 -40 10 0 6 -16 10 -35 10 -19 0 -35 5 -35 10 0 6 -22 10
-50 10 -27 0 -50 5 -50 10 0 6 -18 10 -40 10 -22 0 -40 5 -40 10 0 6 -18 10
-40 10 -22 0 -40 4 -40 9 0 5 -38 12 -85 16 -47 4 -85 11 -85 16 0 5 -18 9
-40 9 -22 0 -40 5 -40 10 0 6 -18 10 -40 10 -22 0 -40 5 -40 10 0 6 -22 10
-50 10 -27 0 -50 5 -50 10 0 6 -18 10 -40 10 -22 0 -40 5 -40 10 0 6 -16 10
-35 10 -19 0 -35 5 -35 10 0 6 -22 10 -50 10 -27 0 -50 5 -50 10 0 6 -18 10
-40 10 -22 0 -40 5 -40 10 0 6 -18 10 -40 10 -22 0 -40 5 -40 10 0 6 -20 10
-45 10 -25 0 -45 5 -45 10 0 6 -18 10 -40 10 -22 0 -40 5 -40 10 0 6 -18 10
-40 10 -22 0 -40 5 -40 10 0 6 -18 10 -40 10 -22 0 -40 5 -40 10 0 6 -22 10
-50 10 -27 0 -50 5 -50 10 0 6 -16 10 -35 10 -19 0 -35 5 -35 10 0 6 -18 10
-40 10 -22 0 -40 4 -40 9 0 5 -40 12 -90 15 -50 4 -90 12 -90 17 0 5 -18 9
-40 9 -22 0 -40 5 -40 10 0 6 -20 10 -45 10 -25 0 -45 5 -45 10 0 6 -18 10
-40 10 -22 0 -40 5 -40 10 0 6 -18 10 -40 10 -22 0 -40 5 -40 10 0 6 -18 10
-40 10 -22 0 -40 5 -40 10 0 6 -22 10 -50 10 -27 0 -50 5 -50 10 0 6 -16 10
-35 10 -19 0 -35 5 -35 10 0 6 -18 10 -40 10 -22 0 -40 5 -40 10 0 6 -22 10
-50 10 -27 0 -50 5 -50 10 0 6 -18 10 -40 10 -22 0 -40 5 -40 10 0 6 -16 10
-35 10 -19 0 -35 5 -35 10 0 6 -22 10 -50 10 -27 0 -50 5 -50 10 0 6 -18 10
-40 10 -22 0 -40 5 -40 10 0 6 -18 10 -40 10 -22 0 -40 4 -40 9 0 5 -38 12
-85 16 -47 4 -85 11 -85 16 0 5 -18 9 -40 9 -22 0 -40 5 -40 10 0 6 -18 10
-40 10 -22 0 -40 5 -40 10 0 6 -22 10 -50 10 -27 0 -50 5 -50 10 0 6 -18 10
-40 10 -22 0 -40 5 -40 10 0 6 -16 10 -35 10 -19 0 -35 5 -35 10 0 6 -22 10
-50 10 -27 0 -50 5 -50 10 0 6 -18 10 -40 10 -22 0 -40 5 -40 10 0 6 -18 10
-40 10 -22 0 -40 5 -40 10 0 6 -18 10 -40 10 -22 0 -40 5 -40 10 0 6 -20 10
-45 10 -25 0 -45 5 -45 10 0 6 -18 10 -40 10 -22 0 -40 5 -40 10 0 6 -18 10
-40 10 -22 0 -40 5 -40 10 0 6 -22 10 -50 10 -27 0 -50 5 -50 10 0 6 -16 10
-35 10 -19 0 -35 5 -35 10 0 6 -18 10 -40 10 -22 0 -40 4 -40 9 0 5 -41 12
-90 15 -50 4 -90 12 -90 17 0 5 -18 9 -40 9 -22 0 -40 5 -40 10 0 6 -16 10
-35 10 -19 0 -35 5 -35 10 0 6 -22 10 -50 10 -27 0 -50 5 -50 10 0 6 -18 10
-40 10 -22 0 -40 5 -40 10 0 6 -18 10 -40 10 -22 0 -40 5 -40 10 0 6 -22 10
-50 10 -27 0 -50 5 -50 10 0 6 -16 10 -35 10 -19 0 -35 5 -35 10 0 6 -18 10
-40 10 -22 0 -40 5 -40 10 0 6 -22 10 -50 10 -27 0 -50 5 -50 10 0 6 -18 10
-40 10 -22 0 -40 5 -40 10 0 6 -18 10 -40 10 -22 0 -40 5 -40 10 0 6 -16 10
-35 10 -19 0 -35 5 -35 10 0 6 -22 10 -50 10 -27 0 -50 5 -50 10 0 6 -18 10
-40 10 -22 0 -40 4 -40 9 0 5 -38 12 -85 16 -47 4 -85 11 -85 16 0 5 -18 9
-40 9 -22 0 -40 5 -40 10 0 6 -18 10 -40 10 -22 0 -40 5 -40 10 0 6 -22 10
-50 10 -27 0 -50 5 -50 10 0 6 -18 10 -40 10 -22 0 -40 5 -40 10 0 6 -16 10
-35 10 -19 0 -35 5 -35 10 0 6 -22 10 -50 10 -27 0 -50 5 -50 10 0 6 -18 10
-40 10 -22 0 -40 5 -40 10 0 6 -18 10 -40 10 -22 0 -40 5 -40 10 0 6 -18 10
-40 10 -22 0 -40 5 -40 10 0 6 -20 10 -45 10 -25 0 -45 5 -45 10 0 6 -18 10
-40 10 -22 0 -40 5 -40 10 0 6 -18 10 -40 10 -22 0 -40 5 -40 10 0 6 -22 10
-50 10 -27 0 -50 5 -50 10 0 6 -18 10 -40 10 -22 0 -40 5 -40 10 0 6 -16 10
-35 10 -19 0 -35 4 -35 9 0 5 -40 12 -90 15 -49 4 -90 12 -90 17 0 5 -18 9
-40 9 -22 0 -40 5 -40 10 0 6 -16 10 -35 10 -19 0 -35 5 -35 10 0 6 -22 10
-50 10 -27 0 -50 5 -50 10 0 6 -18 10 -40 10 -22 0 -40 5 -40 10 0 6 -18 10
-40 10 -22 0 -40 5 -40 10 0 6 -22 10 -50 10 -27 0 -50 5 -50 10 0 6 -16 10
-35 10 -19 0 -35 5 -35 10 0 6 -18 10 -40 10 -22 0 -40 5 -40 10 0 6 -22 10
-50 10 -27 0 -50 5 -50 10 0 6 -18 10 -40 10 -22 0 -40 5 -40 10 0 6 -18 10
-40 10 -22 0 -40 5 -40 10 0 6 -16 10 -35 10 -19 0 -35 5 -35 10 0 6 -22 10
-50 10 -27 0 -50 5 -50 10 0 6 -18 10 -40 10 -22 0 -40 5 -40 10 0 6 -18 10
-40 10 -22 0 -40 4 -40 9 0 5 -38 12 -85 16 -47 4 -85 11 -85 16 0 5 -18 9
-40 9 -22 0 -40 5 -40 10 0 6 -22 10 -50 10 -27 0 -50 5 -50 10 0 6 -18 10
-40 10 -22 0 -40 5 -40 10 0 6 -16 10 -35 10 -19 0 -35 5 -35 10 0 6 -22 10
-50 10 -27 0 -50 5 -50 10 0 6 -18 10 -40 10 -22 0 -40 5 -40 10 0 6 -18 10
-40 10 -22 0 -40 5 -40 10 0 6 -18 10 -40 10 -22 0 -40 5 -40 10 0 6 -20 10
-45 10 -25 0 -45 5 -45 10 0 6 -18 10 -40 10 -22 0 -40 5 -40 10 0 6 -18 10
-40 10 -22 0 -40 5 -40 10 0 6 -22 10 -50 10 -27 0 -50 5 -50 10 0 6 -18 10
-40 10 -22 0 -40 5 -40 10 0 6 -16 10 -35 10 -19 0 -35 4 -35 9 0 5 -40 12
-90 15 -49 4 -90 12 -90 17 0 5 -18 9 -40 9 -22 0 -40 5 -40 10 0 6 -20 10
-45 10 -25 0 -45 5 -45 10 0 6 -18 10 -40 10 -22 0 -40 5 -40 10 0 6 -18 10
-40 10 -22 0 -40 5 -40 10 0 6 -18 10 -40 10 -22 0 -40 5 -40 10 0 6 -22 10
-50 10 -27 0 -50 5 -50 10 0 6 -16 10 -35 10 -19 0 -35 5 -35 10 0 6 -18 10
-40 10 -22 0 -40 5 -40 10 0 6 -22 10 -50 10 -27 0 -50 5 -50 10 0 6 -18 10
-40 10 -22 0 -40 5 -40 10 0 6 -18 10 -40 10 -22 0 -40 5 -40 10 0 6 -20 10
-45 10 -25 0 -45 5 -45 10 0 6 -18 10 -40 10 -22 0 -40 5 -40 10 0 6 -18 10
-40 10 -22 0 -40 5 -40 10 0 6 -22 10 -50 10 -27 0 -50 4 -50 9 0 5 -34 12
-75 16 -41 4 -75 11 -75 16 0 5 -18 9 -40 9 -22 0 -40 5 -40 10 0 6 -22 10
-50 10 -27 0 -50 5 -50 10 0 6 -18 10 -40 10 -22 0 -40 5 -40 10 0 6 -16 10
-35 10 -19 0 -35 5 -35 10 0 6 -22 10 -50 10 -27 0 -50 5 -50 10 0 6 -18 10
-40 10 -22 0 -40 5 -40 10 0 6 -18 10 -40 10 -22 0 -40 5 -40 10 0 6 -22 10
-50 10 -27 0 -50 5 -50 10 0 6 -16 10 -35 10 -19 0 -35 5 -35 10 0 6 -18 10
-40 10 -22 0 -40 5 -40 10 0 6 -18 10 -40 10 -22 0 -40 5 -40 10 0 6 -22 10
-50 10 -27 0 -50 5 -50 10 0 6 -18 10 -40 10 -22 0 -40 5 -40 10 0 6 -16 10
-35 10 -19 0 -35 4 -35 9 0 5 -41 12 -90 15 -49 4 -90 12 -90 17 0 5 -18 9
-40 9 -22 0 -40 5 -40 10 0 6 -20 10 -45 10 -25 0 -45 5 -45 10 0 6 -18 10
-40 10 -22 0 -40 5 -40 10 0 6 -18 10 -40 10 -22 0 -40 5 -40 10 0 6 -22 10
-50 10 -27 0 -50 5 -50 10 0 6 -18 10 -40 10 -22 0 -40 5 -40 10 0 6 -16 10
-35 10 -19 0 -35 5 -35 10 0 6 -18 10 -40 10 -22 0 -40 5 -40 10 0 6 -22 10
-50 10 -27 0 -50 5 -50 10 0 6 -18 10 -40 10 -22 0 -40 5 -40 10 0 6 -18 10
-40 10 -22 0 -40 5 -40 10 0 6 -20 10 -45 10 -25 0 -45 5 -45 10 0 6 -18 10
-40 10 -22 0 -40 5 -40 10 0 6 -18 10 -40 10 -22 0 -40 5 -40 10 0 6 -22 10
-50 10 -27 0 -50 4 -50 9 0 5 -34 12 -75 16 -41 4 -75 11 -75 16 0 5 -18 9
-40 9 -22 0 -40 5 -40 10 0 6 -22 10 -50 10 -27 0 -50 5 -50 10 0 6 -18 10
-40 10 -22 0 -40 5 -40 10 0 6 -18 10 -40 10 -22 0 -40 5 -40 10 0 6 -20 10
-45 10 -25 0 -45 5 -45 10 0 6 -18 10 -40 10 -22 0 -40 5 -40 10 0 6 -18 10
-40 10 -22 0 -40 5 -40 10 0 6 -22 10 -50 10 -27 0 -50 5 -50 10 0 6 -16 10
-35 10 -19 0 -35 5 -35 10 0 6 -18 10 -40 10 -22 0 -40 5 -40 10 0 6 -22 10
-50 10 -27 0 -50 5 -50 10 0 6 -18 10 -40 10 -22 0 -40 5 -40 10 0 6 -18 10
-40 10 -22 0 -40 5 -40 10 0 6 -16 10 -35 10 -19 0 -35 4 -35 9 0 5 -40 12
-90 15 -49 4 -90 12 -90 17 0 5 -18 9 -40 9 -22 0 -40 5 -40 10 0 6 -22 10
-50 10 -27 0 -50 5 -50 10 0 6 -16 10 -35 10 -19 0 -35 5 -35 10 0 6 -18 10
-40 10 -22 0 -40 5 -40 10 0 6 -22 10 -50 10 -27 0 -50 5 -50 10 0 6 -30 10
-70 10 -40 0 -70 4 -70 10 0 6 -65 10 -175 10 -110 0 -175 4 -175 10 0 6 -130
10 -370 10 -240 0 -370 -4 -370 -10z"/>
</g>
</svg>
